<svg viewBox="0 0 1600 1000" xmlns="http://www.w3.org/2000/svg">
  <defs>
    <!-- Arrow markers for annotations -->
    <marker id="arrowGreen" markerWidth="10" markerHeight="10" refX="9" refY="3" orient="auto" markerUnits="strokeWidth">
      <path d="M0,0 L0,6 L9,3 z" fill="#2e7d32" />
    </marker>
    <marker id="arrowRed" markerWidth="10" markerHeight="10" refX="9" refY="3" orient="auto" markerUnits="strokeWidth">
      <path d="M0,0 L0,6 L9,3 z" fill="#c62828" />
    </marker>
    
    <!-- Patterns for visual interest -->
    <pattern id="dots" x="0" y="0" width="20" height="20" patternUnits="userSpaceOnUse">
      <circle cx="2" cy="2" r="1" fill="#e0e0e0"/>
    </pattern>
  </defs>
  
  <!-- Background -->
  <rect width="1600" height="1000" fill="#fafafa"/>
  
  <!-- Title -->
  <text x="800" y="40" font-size="32" font-weight="bold" text-anchor="middle" fill="#212121">
    LMS Homepage: Good vs Bad Design
  </text>
  
  <!-- GOOD LMS SECTION -->
  <g transform="translate(50, 80)">
    <!-- Header -->
    <rect x="0" y="0" width="700" height="55" fill="#2e7d32" rx="8"/>
    <text x="350" y="35" font-size="22" font-weight="bold" text-anchor="middle" fill="white">
      ✓ ACCESSIBLE &amp; USER-FRIENDLY LMS
    </text>
    
    <!-- Browser Window Frame -->
    <rect x="0" y="55" width="700" height="850" fill="white" stroke="#757575" stroke-width="3" rx="5"/>
    
    <!-- Browser Chrome -->
    <rect x="0" y="55" width="700" height="35" fill="#e0e0e0" rx="5"/>
    <circle cx="15" cy="72" r="5" fill="#f44336"/>
    <circle cx="30" cy="72" r="5" fill="#ff9800"/>
    <circle cx="45" cy="72" r="5" fill="#4caf50"/>
    <rect x="70" y="65" width="400" height="18" fill="white" stroke="#bdbdbd" stroke-width="1" rx="9"/>
    <text x="80" y="78" font-size="10" fill="#757575">🔒 https://lms.university.edu/dashboard</text>
    
    <!-- Top Navigation Bar (WCAG AAA compliant: 7.5:1 contrast) -->
    <rect x="0" y="90" width="700" height="55" fill="#1565c0"/>
    <circle cx="25" cy="117" r="8" fill="white"/>
    <text x="45" y="123" font-size="18" font-weight="bold" fill="white">LearnHub</text>
    
    <!-- Search bar with good contrast -->
    <rect x="200" y="107" width="200" height="22" fill="white" stroke="#0d47a1" stroke-width="2" rx="11"/>
    <text x="215" y="122" font-size="12" fill="#616161">🔍 Search courses...</text>
    
    <!-- Profile section -->
    <rect x="550" y="107" width="70" height="22" fill="#0d47a1" stroke="white" stroke-width="1" rx="4"/>
    <text x="585" y="122" font-size="12" font-weight="bold" text-anchor="middle" fill="white">Profile</text>
    <rect x="625" y="107" width="60" height="22" fill="#0d47a1" stroke="white" stroke-width="1" rx="4"/>
    <text x="655" y="122" font-size="12" font-weight="bold" text-anchor="middle" fill="white">Help</text>
    
    <!-- Sidebar Navigation (High contrast) -->
    <rect x="0" y="145" width="150" height="760" fill="#f5f5f5" stroke="#bdbdbd" stroke-width="1"/>
    
    <!-- Active nav item -->
    <rect x="5" y="155" width="140" height="40" fill="#1565c0" rx="4"/>
    <text x="75" y="165" font-size="13" font-weight="bold" text-anchor="middle" fill="white">📊</text>
    <text x="75" y="185" font-size="12" font-weight="bold" text-anchor="middle" fill="white">Dashboard</text>
    
    <!-- Other nav items -->
    <rect x="5" y="200" width="140" height="40" fill="transparent"/>
    <text x="75" y="210" font-size="13" text-anchor="middle" fill="#424242">📚</text>
    <text x="75" y="230" font-size="12" text-anchor="middle" fill="#424242">My Courses</text>
    
    <rect x="5" y="245" width="140" height="40" fill="transparent"/>
    <text x="75" y="255" font-size="13" text-anchor="middle" fill="#424242">📅</text>
    <text x="75" y="275" font-size="12" text-anchor="middle" fill="#424242">Calendar</text>
    
    <rect x="5" y="290" width="140" height="40" fill="transparent"/>
    <text x="75" y="300" font-size="13" text-anchor="middle" fill="#424242">📝</text>
    <text x="75" y="320" font-size="12" text-anchor="middle" fill="#424242">Assignments</text>
    
    <rect x="5" y="335" width="140" height="40" fill="transparent"/>
    <text x="75" y="345" font-size="13" text-anchor="middle" fill="#424242">📊</text>
    <text x="75" y="365" font-size="12" text-anchor="middle" fill="#424242">Grades</text>
    
    <rect x="5" y="380" width="140" height="40" fill="transparent"/>
    <text x="75" y="390" font-size="13" text-anchor="middle" fill="#424242">💬</text>
    <text x="75" y="410" font-size="12" text-anchor="middle" fill="#424242">Messages</text>
    <circle cx="95" cy="395" r="8" fill="#d32f2f"/>
    <text x="95" y="399" font-size="9" font-weight="bold" text-anchor="middle" fill="white">3</text>
    
    <!-- Main Content Area -->
    <rect x="160" y="155" width="530" height="740" fill="white"/>
    
    <!-- Welcome Banner (High contrast) -->
    <rect x="170" y="165" width="510" height="50" fill="#1976d2" rx="6"/>
    <text x="185" y="188" font-size="16" font-weight="bold" fill="white">Welcome back, Alex Chen!</text>
    <text x="185" y="206" font-size="13" fill="white">You have 2 assignments due this week</text>
    
    <!-- Upcoming Deadlines Section -->
    <rect x="170" y="230" width="240" height="35" fill="#424242" rx="4"/>
    <text x="185" y="253" font-size="14" font-weight="bold" fill="white">⏰ Upcoming Deadlines</text>
    
    <!-- Assignment 1 (Urgent - Red) -->
    <rect x="170" y="270" width="240" height="70" fill="white" stroke="#bdbdbd" stroke-width="2" rx="6"/>
    <rect x="170" y="270" width="8" height="70" fill="#d32f2f" rx="6"/>
    <text x="190" y="290" font-size="13" font-weight="bold" fill="#212121">Mathematics 101</text>
    <text x="190" y="308" font-size="11" fill="#424242">Chapter 5 Quiz</text>
    <rect x="190" y="318" width="90" height="16" fill="#ffebee" stroke="#d32f2f" stroke-width="1" rx="3"/>
    <text x="235" y="329" font-size="10" font-weight="bold" text-anchor="middle" fill="#c62828">Due: Tomorrow</text>
    <circle cx="390" cy="305" r="12" fill="#d32f2f"/>
    <text x="390" y="310" font-size="10" font-weight="bold" text-anchor="middle" fill="white">!</text>
    
    <!-- Assignment 2 (Soon - Orange) -->
    <rect x="170" y="345" width="240" height="70" fill="white" stroke="#bdbdbd" stroke-width="2" rx="6"/>
    <rect x="170" y="345" width="8" height="70" fill="#f57c00" rx="6"/>
    <text x="190" y="365" font-size="13" font-weight="bold" fill="#212121">History 202</text>
    <text x="190" y="383" font-size="11" fill="#424242">Research Essay Draft</text>
    <rect x="190" y="393" width="80" height="16" fill="#fff3e0" stroke="#f57c00" stroke-width="1" rx="3"/>
    <text x="230" y="404" font-size="10" font-weight="bold" text-anchor="middle" fill="#e65100">Due: Nov 5</text>
    <circle cx="390" cy="380" r="12" fill="#ff9800"/>
    <text x="390" y="385" font-size="18" font-weight="bold" text-anchor="middle" fill="white">⚠</text>
    
    <!-- Assignment 3 (Upcoming - Green) -->
    <rect x="170" y="420" width="240" height="70" fill="white" stroke="#bdbdbd" stroke-width="2" rx="6"/>
    <rect x="170" y="420" width="8" height="70" fill="#388e3c" rx="6"/>
    <text x="190" y="440" font-size="13" font-weight="bold" fill="#212121">Computer Science 303</text>
    <text x="190" y="458" font-size="11" fill="#424242">Lab Assignment 4</text>
    <rect x="190" y="468" width="80" height="16" fill="#e8f5e9" stroke="#388e3c" stroke-width="1" rx="3"/>
    <text x="230" y="479" font-size="10" font-weight="bold" text-anchor="middle" fill="#2e7d32">Due: Nov 12</text>
    <circle cx="390" cy="455" r="12" fill="#4caf50"/>
    <text x="390" y="461" font-size="14" font-weight="bold" text-anchor="middle" fill="white">✓</text>
    
    <!-- Recent Announcements Section -->
    <rect x="425" y="230" width="265" height="35" fill="#424242" rx="4"/>
    <text x="440" y="253" font-size="14" font-weight="bold" fill="white">📢 Recent Announcements</text>
    
    <!-- Announcement 1 -->
    <rect x="425" y="270" width="265" height="75" fill="white" stroke="#bdbdbd" stroke-width="2" rx="6"/>
    <circle cx="440" cy="285" r="8" fill="#1976d2"/>
    <text x="460" y="290" font-size="12" font-weight="bold" fill="#212121">Mathematics 101</text>
    <text x="460" y="306" font-size="10" fill="#616161">Office hours moved to Thursday 2-4PM.</text>
    <text x="460" y="320" font-size="10" fill="#616161">Room changed to Building A, Room 304.</text>
    <text x="460" y="337" font-size="9" fill="#9e9e9e">Posted 2 hours ago</text>
    
    <!-- Announcement 2 -->
    <rect x="425" y="350" width="265" height="65" fill="white" stroke="#bdbdbd" stroke-width="2" rx="6"/>
    <circle cx="440" cy="365" r="8" fill="#7b1fa2"/>
    <text x="460" y="370" font-size="12" font-weight="bold" fill="#212121">History 202</text>
    <text x="460" y="386" font-size="10" fill="#616161">Week 8 readings now available in the</text>
    <text x="460" y="400" font-size="10" fill="#616161">Course Materials section.</text>
    <text x="460" y="410" font-size="9" fill="#9e9e9e">Posted yesterday</text>
    
    <!-- Announcement 3 -->
    <rect x="425" y="420" width="265" height="70" fill="white" stroke="#bdbdbd" stroke-width="2" rx="6"/>
    <circle cx="440" cy="435" r="8" fill="#00796b"/>
    <text x="460" y="440" font-size="12" font-weight="bold" fill="#212121">Computer Science 303</text>
    <text x="460" y="456" font-size="10" fill="#616161">Lab session this Friday will cover</text>
    <text x="460" y="470" font-size="10" fill="#616161">debugging techniques. Bring your laptop.</text>
    <text x="460" y="483" font-size="9" fill="#9e9e9e">Posted 3 days ago</text>
    
    <!-- Course Progress Section -->
    <rect x="170" y="505" width="520" height="35" fill="#424242" rx="4"/>
    <text x="185" y="528" font-size="14" font-weight="bold" fill="white">📚 My Courses - Current Progress</text>
    
    <!-- Course Card 1 -->
    <rect x="170" y="545" width="160" height="120" fill="white" stroke="#bdbdbd" stroke-width="2" rx="6"/>
    <rect x="170" y="545" width="160" height="35" fill="#1976d2" rx="6"/>
    <text x="250" y="568" font-size="13" font-weight="bold" text-anchor="middle" fill="white">Mathematics 101</text>
    <text x="185" y="595" font-size="11" fill="#424242">Calculus I</text>
    <text x="185" y="610" font-size="10" fill="#616161">Prof. Johnson</text>
    <text x="185" y="630" font-size="10" font-weight="bold" fill="#424242">Progress: 68%</text>
    <rect x="185" y="638" width="130" height="10" fill="#e0e0e0" rx="5"/>
    <rect x="185" y="638" width="88" height="10" fill="#4caf50" rx="5"/>
    <text x="185" y="660" font-size="10" font-weight="bold" fill="#1976d2">View Course →</text>
    
    <!-- Course Card 2 -->
    <rect x="340" y="545" width="160" height="120" fill="white" stroke="#bdbdbd" stroke-width="2" rx="6"/>
    <rect x="340" y="545" width="160" height="35" fill="#7b1fa2" rx="6"/>
    <text x="420" y="568" font-size="13" font-weight="bold" text-anchor="middle" fill="white">History 202</text>
    <text x="355" y="595" font-size="11" fill="#424242">Modern World History</text>
    <text x="355" y="610" font-size="10" fill="#616161">Prof. Martinez</text>
    <text x="355" y="630" font-size="10" font-weight="bold" fill="#424242">Progress: 85%</text>
    <rect x="355" y="638" width="130" height="10" fill="#e0e0e0" rx="5"/>
    <rect x="355" y="638" width="110" height="10" fill="#4caf50" rx="5"/>
    <text x="355" y="660" font-size="10" font-weight="bold" fill="#7b1fa2">View Course →</text>
    
    <!-- Course Card 3 -->
    <rect x="510" y="545" width="160" height="120" fill="white" stroke="#bdbdbd" stroke-width="2" rx="6"/>
    <rect x="510" y="545" width="160" height="35" fill="#00796b" rx="6"/>
    <text x="590" y="568" font-size="13" font-weight="bold" text-anchor="middle" fill="white">CS 303</text>
    <text x="525" y="595" font-size="11" fill="#424242">Data Structures</text>
    <text x="525" y="610" font-size="10" fill="#616161">Prof. Chen</text>
    <text x="525" y="630" font-size="10" font-weight="bold" fill="#424242">Progress: 52%</text>
    <rect x="525" y="638" width="130" height="10" fill="#e0e0e0" rx="5"/>
    <rect x="525" y="638" width="68" height="10" fill="#ff9800" rx="5"/>
    <text x="525" y="660" font-size="10" font-weight="bold" fill="#00796b">View Course →</text>
    
    <!-- Quick Actions Section -->
    <rect x="170" y="680" width="520" height="35" fill="#424242" rx="4"/>
    <text x="185" y="703" font-size="14" font-weight="bold" fill="white">⚡ Quick Actions</text>
    
    <rect x="170" y="720" width="125" height="50" fill="#1976d2" stroke="#0d47a1" stroke-width="2" rx="6"/>
    <text x="233" y="750" font-size="12" font-weight="bold" text-anchor="middle" fill="white">📝 Submit Work</text>
    
    <rect x="305" y="720" width="125" height="50" fill="#7b1fa2" stroke="#4a148c" stroke-width="2" rx="6"/>
    <text x="368" y="750" font-size="12" font-weight="bold" text-anchor="middle" fill="white">📅 View Calendar</text>
    
    <rect x="440" y="720" width="125" height="50" fill="#00796b" stroke="#004d40" stroke-width="2" rx="6"/>
    <text x="503" y="750" font-size="12" font-weight="bold" text-anchor="middle" fill="white">💬 Messages</text>
    
    <rect x="575" y="720" width="115" height="50" fill="#f57c00" stroke="#e65100" stroke-width="2" rx="6"/>
    <text x="633" y="750" font-size="12" font-weight="bold" text-anchor="middle" fill="white">📊 Grades</text>
    
    <!-- Footer info -->
    <text x="170" y="795" font-size="9" fill="#9e9e9e">Last login: Oct 29, 2025 at 9:15 AM</text>
    <text x="170" y="810" font-size="9" fill="#9e9e9e">Need help? Click the Help button or email support@university.edu</text>
  </g>
  
  <!-- GOOD LMS ANNOTATIONS -->
  <line x1="200" y1="250" x2="30" y2="320" stroke="#2e7d32" stroke-width="3" marker-end="url(#arrowGreen)"/>
  <rect x="-230" y="300" width="250" height="65" fill="#2e7d32" rx="6"/>
  <text x="-220" y="325" font-size="15" font-weight="bold" fill="white">✓ Clear Visual Hierarchy</text>
  <text x="-220" y="345" font-size="13" fill="white">Organized navigation</text>
  <text x="-220" y="360" font-size="13" fill="white">High contrast (7:1 ratio)</text>
  
  <line x1="400" y1="195" x2="400" y2="30" stroke="#2e7d32" stroke-width="3" marker-end="url(#arrowGreen)"/>
  <rect x="280" y="-10" width="240" height="52" fill="#2e7d32" rx="6"/>
  <text x="290" y="12" font-size="15" font-weight="bold" fill="white">✓ Accessible Search</text>
  <text x="290" y="32" font-size="13" fill="white">Easy to find and use</text>
  
  <line x1="310" y1="390" x2="30" y2="500" stroke="#2e7d32" stroke-width="3" marker-end="url(#arrowGreen)"/>
  <rect x="-230" y="480" width="250" height="65" fill="#2e7d32" rx="6"/>
  <text x="-220" y="505" font-size="15" font-weight="bold" fill="white">✓ Color-Coded Urgency</text>
  <text x="-220" y="525" font-size="13" fill="white">Red=urgent, Orange=soon,</text>
  <text x="-220" y="540" font-size="13" fill="white">Green=on track</text>
  
  <line x1="575" y1="390" x2="760" y2="450" stroke="#2e7d32" stroke-width="3" marker-end="url(#arrowGreen)"/>
  <rect x="760" y="425" width="240" height="65" fill="#2e7d32" rx="6"/>
  <text x="770" y="450" font-size="15" font-weight="bold" fill="white">✓ Concise Updates</text>
  <text x="770" y="470" font-size="13" fill="white">Only relevant information</text>
  <text x="770" y="485" font-size="13" fill="white">with clear timestamps</text>
  
  <line x1="440" y1="700" x2="30" y2="770" stroke="#2e7d32" stroke-width="3" marker-end="url(#arrowGreen)"/>
  <rect x="-230" y="750" width="250" height="65" fill="#2e7d32" rx="6"/>
  <text x="-220" y="775" font-size="15" font-weight="bold" fill="white">✓ Visual Progress Bars</text>
  <text x="-220" y="795" font-size="13" fill="white">Students see completion</text>
  <text x="-220" y="810" font-size="13" fill="white">status at a glance</text>
  
  <!-- BAD LMS SECTION -->
  <g transform="translate(850, 80)">
    <!-- Header -->
    <rect x="0" y="0" width="700" height="55" fill="#c62828" rx="8"/>
    <text x="350" y="35" font-size="22" font-weight="bold" text-anchor="middle" fill="white">
      ✗ POOR ACCESSIBILITY &amp; CONFUSING LMS
    </text>
    
    <!-- Browser Window Frame -->
    <rect x="0" y="55" width="700" height="850" fill="white" stroke="#757575" stroke-width="3" rx="5"/>
    
    <!-- Browser Chrome -->
    <rect x="0" y="55" width="700" height="35" fill="#e0e0e0" rx="5"/>
    <circle cx="15" cy="72" r="5" fill="#f44336"/>
    <circle cx="30" cy="72" r="5" fill="#ff9800"/>
    <circle cx="45" cy="72" r="5" fill="#4caf50"/>
    <rect x="70" y="65" width="400" height="18" fill="white" stroke="#bdbdbd" stroke-width="1" rx="9"/>
    <text x="80" y="78" font-size="10" fill="#757575">🔒 https://portal.edu/system/index.php</text>
    
    <!-- Cluttered Top Bar (Poor contrast) -->
    <rect x="0" y="90" width="700" height="90" fill="#546e7a"/>
    <text x="8" y="110" font-size="9" fill="#cfd8dc">Home</text>
    <text x="43" y="110" font-size="9" fill="#cfd8dc">Courses</text>
    <text x="85" y="110" font-size="9" fill="#cfd8dc">My Files</text>
    <text x="130" y="110" font-size="9" fill="#cfd8dc">Resources</text>
    <text x="188" y="110" font-size="9" fill="#cfd8dc">Tools</text>
    <text x="225" y="110" font-size="9" fill="#cfd8dc">Help</text>
    <text x="260" y="110" font-size="9" fill="#cfd8dc">Settings</text>
    <text x="308" y="110" font-size="9" fill="#cfd8dc">Reports</text>
    <text x="358" y="110" font-size="9" fill="#cfd8dc">Admin</text>
    <text x="403" y="110" font-size="9" fill="#cfd8dc">Account</text>
    <text x="458" y="110" font-size="9" fill="#cfd8dc">Support</text>
    <text x="513" y="110" font-size="9" fill="#cfd8dc">FAQ</text>
    <text x="545" y="110" font-size="9" fill="#cfd8dc">Feedback</text>
    <text x="603" y="110" font-size="9" fill="#cfd8dc">More...</text>
    
    <text x="8" y="128" font-size="8" fill="#b0bec5">Quick Links:</text>
    <text x="60" y="128" font-size="8" fill="#b0bec5">Favorites</text>
    <text x="105" y="128" font-size="8" fill="#b0bec5">History</text>
    <text x="145" y="128" font-size="8" fill="#b0bec5">Bookmarks</text>
    <text x="200" y="128" font-size="8" fill="#b0bec5">Shortcuts</text>
    <text x="255" y="128" font-size="8" fill="#b0bec5">Preferences</text>
    <text x="320" y="128" font-size="8" fill="#b0bec5">Downloads</text>
    <text x="385" y="128" font-size="8" fill="#b0bec5">Upload</text>
    <text x="435" y="128" font-size="8" fill="#b0bec5">Print</text>
    <text x="473" y="128" font-size="8" fill="#b0bec5">Export</text>
    <text x="518" y="128" font-size="8" fill="#b0bec5">Share</text>
    
    <text x="8" y="145" font-size="8" fill="#b0bec5">View:</text>
    <text x="35" y="145" font-size="8" fill="#b0bec5">[Grid]</text>
    <text x="65" y="145" font-size="8" fill="#b0bec5">[List]</text>
    <text x="92" y="145" font-size="8" fill="#b0bec5">[Compact]</text>
    <text x="140" y="145" font-size="8" fill="#b0bec5">[Expanded]</text>
    
    <rect x="590" y="100" width="100" height="15" fill="#455a64" rx="2"/>
    <text x="640" y="111" font-size="8" text-anchor="middle" fill="#eceff1">User_12345678</text>
    <text x="665" y="128" font-size="7" fill="#eceff1">Logout</text>
    <text x="665" y="145" font-size="7" fill="#eceff1">Profile</text>
    <text x="665" y="160" font-size="7" fill="#eceff1">Settings</text>
    
    <!-- Notification Banner Spam -->
    <rect x="10" y="195" width="680" height="130" fill="#fff9c4" stroke="#f9a825" stroke-width="2"/>
    <text x="20" y="212" font-size="11" font-weight="bold" fill="#f57f17">⚠ SYSTEM NOTIFICATIONS (47 UNREAD)</text>
    <text x="20" y="230" font-size="8" fill="#5d4037">[URGENT] System maintenance scheduled for tonight 11:00PM - 3:00AM EST</text>
    <text x="20" y="245" font-size="8" fill="#5d4037">[ALERT] Your password will expire in 89 days. Click here to update now.</text>
    <text x="20" y="260" font-size="8" fill="#5d4037">[INFO] New Terms of Service have been updated. Please review by end of month.</text>
    <text x="20" y="275" font-size="8" fill="#5d4037">[REMINDER] Complete mandatory annual compliance training (overdue by 3 days)</text>
    <text x="20" y="290" font-size="8" fill="#5d4037">[UPDATE] Browser compatibility notice: IE11 support ending December 2024</text>
    <text x="20" y="305" font-size="8" fill="#5d4037">[NOTICE] New privacy policy effective immediately. Data collection updated.</text>
    <text x="20" y="320" font-size="8" fill="#757575">▼ Click to show 41 more notifications...</text>
    
    <!-- Messy Content Area -->
    <text x="20" y="355" font-size="13" fill="#212121">My Content</text>
    <rect x="20" y="365" width="320" height="270" fill="#fafafa" stroke="#9e9e9e" stroke-width="1"/>
    <text x="30" y="385" font-size="9" fill="#212121">COURSE_2024_FALL_MATH_101_SECTION_A_REVISED_V3</text>
    <text x="30" y="402" font-size="9" fill="#212121">HIST_202_2024_AUTUMN_GROUP1_UPDATED_FINAL</text>
    <text x="30" y="419" font-size="9" fill="#212121">CS_303_FA24_DATA_STRUCTURES_PROF_CHEN_NEW</text>
    <text x="30" y="436" font-size="9" fill="#212121">ENG_101_ARCHIVED_2023_SPRING_DO_NOT_USE</text>
    <text x="30" y="453" font-size="9" fill="#212121">TRAINING_MODULE_COMPLIANCE_2024_BACKUP</text>
    <text x="30" y="470" font-size="9" fill="#212121">DEMO_COURSE_TEST_SANDBOX_DELETE_LATER</text>
    <text x="30" y="487" font-size="9" fill="#212121">BACKUP_FILES_2024_OCTOBER_TEMP_STORAGE</text>
    <text x="30" y="504" font-size="9" fill="#212121">COURSE_MATERIALS_OLD_VERSION_ARCHIVED</text>
    <text x="30" y="521" font-size="9" fill="#212121">STUDENT_RESOURCES_2023_OBSOLETE_FILES</text>
    <text x="30" y="538" font-size="9" fill="#212121">UNTITLED_FOLDER_1, UNTITLED_FOLDER_2</text>
    <text x="30" y="555" font-size="9" fill="#212121">MISCELLANEOUS_ITEMS_TO_BE_SORTED</text>
    <text x="30" y="572" font-size="9" fill="#212121">PHYSICS_201_TRANSFERRED_FROM_OLD_SYSTEM</text>
    <text x="30" y="589" font-size="9" fill="#212121">TEST_UPLOAD_IGNORE_THIS_FILE_123456</text>
    <text x="30" y="606" font-size="9" fill="#212121">SAMPLE_DATA_FOR_TESTING_PURPOSES_ONLY</text>
    <text x="30" y="623" font-size="8" fill="#757575">▼ Show 147 more items...</text>
    
    <!-- Activity Feed Overload -->
    <rect x="350" y="365" width="340" height="270" fill="#fafafa" stroke="#9e9e9e" stroke-width="1"/>
    <text x="360" y="385" font-size="11" font-weight="bold" fill="#212121">Recent Activity Feed</text>
    <text x="360" y="405" font-size="8" fill="#424242">User_67 posted in Forum Thread #2847 "Discussion Topic" at 3:24 AM</text>
    <text x="360" y="420" font-size="8" fill="#424242">File uploaded: Assignment_v3_FINAL_FINAL_USE_THIS_ONE.docx</text>
    <text x="360" y="435" font-size="8" fill="#424242">Grade changed for Quiz 2 in MATH_101 (check Grade Center for details)</text>
    <text x="360" y="450" font-size="8" fill="#424242">New announcement posted in [ARCHIVED_COURSE_2023_DELETE]</text>
    <text x="360" y="465" font-size="8" fill="#424242">User_89 commented on Discussion Board Post #4562 from Week 3</text>
    <text x="360" y="480" font-size="8" fill="#424242">System backup completed successfully (this does not affect you)</text>
    <text x="360" y="495" font-size="8" fill="#424242">User_156 shared file in course you're not enrolled in</text>
    <text x="360" y="510" font-size="8" fill="#424242">Calendar event from 3 months ago was modified by administrator</text>
    <text x="360" y="525" font-size="8" fill="#424242">Notification test message - please disregard this notification</text>
    <text x="360" y="540" font-size="8" fill="#424242">Grade export completed for admin use (students: ignore this)</text>
    <text x="360" y="555" font-size="8" fill="#424242">Forum post edited by User_23 in thread you haven't viewed</text>
    <text x="360" y="570" font-size="8" fill="#424242">Assignment submission received from student in different section</text>
    <text x="360" y="585" font-size="8" fill="#424242">Database optimization completed - system performance improved</text>
    <text x="360" y="600" font-size="8" fill="#424242">User_401 logged in from mobile device (iOS 15.2, Safari)</text>
    <text x="360" y="615" font-size="8" fill="#424242">Automated email sent regarding upcoming institutional survey</text>
    <text x="360" y="625" font-size="8" fill="#757575">▼ Load 239 more notifications...</text>
    
    <!-- Assignment Section - Poor Design -->
    <text x="20" y="665" font-size="13" fill="#212121">Assignments</text>
    <rect x="20" y="675" width="670" height="100" fill="white" stroke="#9e9e9e" stroke-width="1"/>
    <text x="30" y="693" font-size="9" fill="#212121">• Quiz_Ch5_Math - status: not_started | due: 2025-11-01 23:59:59 EST</text>
    <text x="30" y="708" font-size="9" fill="#212121">• Essay_Draft_Hist (UPDATED_VERSION_3) - status: in_progress | due: 2025-11-05</text>
    <text x="30" y="723" font-size="9" fill="#212121">• Lab_Assignment_4_CS303_FINAL - status: not_submitted | due: TBD</text>
    <text x="30" y="738" font-size="9" fill="#212121">• Reading_Response_Week7 - status: late | due: 2025-10-22 (7 days overdue)</text>
    <text x="30" y="753" font-size="9" fill="#212121">• Group_Project_Proposal_REVISED - status: unknown | due: see syllabus</text>
    <text x="30" y="768" font-size="8" fill="#757575">Note: Some assignments may not appear here. Check individual course pages.</text>
    
    <!-- Useless Links Section -->
    <rect x="20" y="785" width="670" height="110" fill="#eeeeee" stroke="#9e9e9e" stroke-width="1"/>
    <text x="30" y="803" font-size="9" fill="#424242">Quick Links: Academic Calendar | Library Portal | IT Support Ticket System</text>
    <text x="30" y="818" font-size="9" fill="#424242">| Campus Map | Dining Services | Parking Information | Athletics | Student Orgs</text>
    <text x="30" y="833" font-size="9" fill="#424242">Resources: Tutorial Library | Video Guides | User Manual (PDF) | FAQ Database</text>
    <text x="30" y="848" font-size="9" fill="#424242">| Contact Form | Live Chat (offline) | Knowledge Base | Archive (2015-2023)</text>
    <text x="30" y="873" font-size="7" fill="#9e9e9e">Copyright © 2024 Educational Institution. All rights reserved worldwide.</text>
    <text x="30" y="885" font-size="7" fill="#9e9e9e">Terms of Service | Privacy Policy | Acceptable Use | Accessibility (VPAT available)</text>
    <text x="500" y="873" font-size="7" fill="#9e9e9e">System v3.2.8b Build 47291</text>
    <text x="500" y="885" font-size="7" fill="#9e9e9e">Session: 8472847x | IP: 192.168.1.x</text>
  </g>
  
  <!-- BAD LMS ANNOTATIONS -->
  <line x1="1000" y1="135" x2="1150" y2="200" stroke="#c62828" stroke-width="3" marker-end="url(#arrowRed)"/>
  <rect x="1150" y="175" width="250" height="65" fill="#c62828" rx="6"/>
  <text x="1160" y="200" font-size="15" font-weight="bold" fill="white">✗ Overwhelming Navigation</text>
  <text x="1160" y="220" font-size="13" fill="white">Too many menu items</text>
  <text x="1160" y="235" font-size="13" fill="white">Poor contrast (2.5:1 ratio)</text>
  
  <line x1="1150" y1="280" x2="1320" y2="350" stroke="#c62828" stroke-width="3" marker-end="url(#arrowRed)"/>
  <rect x="1320" y="325" width="250" height="65" fill="#c62828" rx="6"/>
  <text x="1330" y="350" font-size="15" font-weight="bold" fill="white">✗ Notification Spam</text>
  <text x="1330" y="370" font-size="13" fill="white">Irrelevant system messages</text>
  <text x="1330" y="385" font-size="13" fill="white">drown out important info</text>
  
  <line x1="1020" y1="500" x2="900" y2="600" stroke="#c62828" stroke-width="3" marker-end="url(#arrowRed)"/>
  <rect x="680" y="575" width="220" height="65" fill="#c62828" rx="6"/>
  <text x="690" y="600" font-size="15" font-weight="bold" fill="white">✗ Cryptic Course Names</text>
  <text x="690" y="620" font-size="13" fill="white">Impossible to identify</text>
  <text x="690" y="635" font-size="13" fill="white">courses at a glance</text>
  
  <line x1="1350" y1="500" x2="1480" y2="580" stroke="#c62828" stroke-width="3" marker-end="url(#arrowRed)"/>
  <rect x="1480" y="555" width="250" height="65" fill="#c62828" rx="6"/>
  <text x="1490" y="580" font-size="15" font-weight="bold" fill="white">✗ Information Overload</text>
  <text x="1490" y="600" font-size="13" fill="white">Irrelevant activity mixed</text>
  <text x="1490" y="615" font-size="13" fill="white">with important updates</text>
  
  <line x1="1180" y1="725" x2="1320" y2="800" stroke="#c62828" stroke-width="3" marker-end="url(#arrowRed)"/>
  <rect x="1320" y="775" width="250" height="65" fill="#c62828" rx="6"/>
  <text x="1330" y="800" font-size="15" font-weight="bold" fill="white">✗ Poor Date Formatting</text>
  <text x="1330" y="820" font-size="13" fill="white">Inconsistent date formats,</text>
  <text x="1330" y="835" font-size="13" fill="white">unclear status indicators</text>
  
  <line x1="1180" y1="845" x2="1320" y2="910" stroke="#c62828" stroke-width="3" marker-end="url(#arrowRed)"/>
  <rect x="1320" y="885" width="250" height="65" fill="#c62828" rx="6"/>
  <text x="1330" y="910" font-size="15" font-weight="bold" fill="white">✗ Cluttered Footer</text>
  <text x="1330" y="930" font-size="13" fill="white">Technical info irrelevant</text>
  <text x="1330" y="945" font-size="13" fill="white">to students, wasted space</text>
  
  <!-- Summary Box -->
  <rect x="50" y="940" width="1500" height="55" fill="#eeeeee" stroke="#757575" stroke-width="2" rx="5"/>
  <text x="800" y="967" font-size="16" font-weight="bold" text-anchor="middle" fill="#212121">KEY DIFFERENCES</text>
  <text x="400" y="987" font-size="13" text-anchor="middle" fill="#2e7d32">Good: Clear hierarchy • High contrast • Relevant info • Visual feedback • Accessible</text>
  <text x="1200" y="987" font-size="13" text-anchor="middle" fill="#c62828">Bad: Cluttered • Poor contrast • Information overload • Cryptic labels • Hard to use</text>
</svg>